<?xml version="1.0" standalone="no"?>
<!DOCTYPE svg PUBLIC "-//W3C//DTD SVG 20010904//EN"
 "http://www.w3.org/TR/2001/REC-SVG-20010904/DTD/svg10.dtd">
<svg version="1.0" xmlns="http://www.w3.org/2000/svg"
 width="279.000000pt" height="279.000000pt" viewBox="0 0 279.000000 279.000000"
 preserveAspectRatio="xMidYMid meet">
<metadata>
Created by potrace 1.11, written by Peter Selinger 2001-2013
</metadata>
<g transform="translate(0.000000,279.000000) scale(0.100000,-0.100000)"
fill="#000000" stroke="none">
<path d="M1304 1961 c-2 -2 -4 -91 -4 -198 l0 -193 -87 0 -88 0 2 195 3 195
-120 0 -120 0 0 -195 0 -195 -185 0 -185 0 -1 28 c-3 60 0 155 5 159 2 3 63 5
135 4 l131 0 0 99 0 100 -390 0 -390 0 0 -100 0 -100 103 1 c56 0 117 0 135 0
l32 -1 0 -95 0 -95 -135 0 -135 0 0 -103 0 -103 133 1 132 0 3 -157 3 -158
118 0 119 0 0 128 c0 70 1 141 1 157 l1 30 183 0 182 0 3 -158 3 -157 119 0
119 0 0 53 c-1 28 -1 99 0 157 l1 106 85 -1 85 0 0 -157 0 -158 119 0 119 0
-1 148 c0 82 2 153 6 158 3 5 120 9 274 9 l268 0 3 -158 3 -157 120 0 120 0
-1 123 c-1 67 -1 138 -1 157 l1 35 218 0 217 0 2 103 1 102 -219 0 c-245 0
-221 -8 -221 75 0 19 1 55 1 80 l1 45 220 0 220 0 0 95 c0 84 -2 95 -17 96
-27 0 -593 1 -630 0 l-33 -1 0 -195 0 -195 -275 0 c-213 0 -275 3 -276 13 -1
15 -1 157 0 175 1 9 52 12 221 12 l220 0 0 95 0 95 -47 1 c-268 3 -626 3 -629
0z"/>
</g>
</svg>
